<mxfile host="Electron" modified="2023-05-19T11:02:15.562Z" agent="Mozilla/5.0 (Windows NT 10.0; Win64; x64) AppleWebKit/537.36 (KHTML, like Gecko) draw.io/21.2.8 Chrome/112.0.5615.165 Electron/24.2.0 Safari/537.36" etag="Y1fzOs22B81wvwHxGNI1" version="21.2.8" type="device">
  <diagram name="Page-1" id="2YBvvXClWsGukQMizWep">
    <mxGraphModel dx="1313" dy="786" grid="1" gridSize="10" guides="1" tooltips="1" connect="1" arrows="1" fold="1" page="1" pageScale="1" pageWidth="850" pageHeight="1100" math="0" shadow="0">
      <root>
        <mxCell id="0" />
        <mxCell id="1" parent="0" />
        <mxCell id="uf8Uw_HvhAa3_yYF7C0B-38" value="Alternative" style="shape=umlFrame;whiteSpace=wrap;html=1;pointerEvents=0;swimlaneFillColor=#F8F9FA;fillColor=#FFDF9C;" vertex="1" parent="1">
          <mxGeometry x="10" y="275" width="1130" height="415" as="geometry" />
        </mxCell>
        <mxCell id="uf8Uw_HvhAa3_yYF7C0B-61" value="Alternative" style="shape=umlFrame;whiteSpace=wrap;html=1;pointerEvents=0;swimlaneFillColor=#E6E6E6;fillColor=#FFDF9C;" vertex="1" parent="1">
          <mxGeometry x="20" y="420" width="1120" height="150" as="geometry" />
        </mxCell>
        <mxCell id="uf8Uw_HvhAa3_yYF7C0B-17" value="loop" style="shape=umlFrame;whiteSpace=wrap;html=1;pointerEvents=0;swimlaneFillColor=#f8f9fa;fillColor=#9FD8E4;" vertex="1" parent="1">
          <mxGeometry x="10" y="155" width="660" height="90" as="geometry" />
        </mxCell>
        <mxCell id="uf8Uw_HvhAa3_yYF7C0B-4" value="" style="shape=umlLifeline;perimeter=lifelinePerimeter;whiteSpace=wrap;html=1;container=1;dropTarget=0;collapsible=0;recursiveResize=0;outlineConnect=0;portConstraint=eastwest;newEdgeStyle={&quot;edgeStyle&quot;:&quot;elbowEdgeStyle&quot;,&quot;elbow&quot;:&quot;vertical&quot;,&quot;curved&quot;:0,&quot;rounded&quot;:0};participant=umlActor;fillColor=#E6D0DE;" vertex="1" parent="1">
          <mxGeometry x="80" y="40" width="20" height="680" as="geometry" />
        </mxCell>
        <mxCell id="uf8Uw_HvhAa3_yYF7C0B-60" value="" style="rounded=0;whiteSpace=wrap;html=1;fillColor=#E6D0DE;" vertex="1" parent="1">
          <mxGeometry x="85" y="290" width="10" height="360" as="geometry" />
        </mxCell>
        <mxCell id="uf8Uw_HvhAa3_yYF7C0B-15" value="Envia el nuevo valor" style="html=1;verticalAlign=bottom;endArrow=block;edgeStyle=elbowEdgeStyle;elbow=vertical;curved=0;rounded=0;" edge="1" parent="1">
          <mxGeometry width="80" relative="1" as="geometry">
            <mxPoint x="270" y="190" as="sourcePoint" />
            <mxPoint x="449.5" y="190.33333333333337" as="targetPoint" />
          </mxGeometry>
        </mxCell>
        <mxCell id="aM9ryv3xv72pqoxQDRHE-5" value="Interfaz" style="shape=umlLifeline;perimeter=lifelinePerimeter;whiteSpace=wrap;html=1;container=0;dropTarget=0;collapsible=0;recursiveResize=0;outlineConnect=0;portConstraint=eastwest;newEdgeStyle={&quot;edgeStyle&quot;:&quot;elbowEdgeStyle&quot;,&quot;elbow&quot;:&quot;vertical&quot;,&quot;curved&quot;:0,&quot;rounded&quot;:0};fillColor=#91DEBF;" parent="1" vertex="1">
          <mxGeometry x="220" y="40" width="100" height="680" as="geometry" />
        </mxCell>
        <mxCell id="uf8Uw_HvhAa3_yYF7C0B-1" value="Controller" style="shape=umlLifeline;perimeter=lifelinePerimeter;whiteSpace=wrap;html=1;container=1;dropTarget=0;collapsible=0;recursiveResize=0;outlineConnect=0;portConstraint=eastwest;newEdgeStyle={&quot;edgeStyle&quot;:&quot;elbowEdgeStyle&quot;,&quot;elbow&quot;:&quot;vertical&quot;,&quot;curved&quot;:0,&quot;rounded&quot;:0};fillColor=#F7BBBD;" vertex="1" parent="1">
          <mxGeometry x="400" y="40" width="100" height="680" as="geometry" />
        </mxCell>
        <mxCell id="uf8Uw_HvhAa3_yYF7C0B-2" value="ViewModel" style="shape=umlLifeline;perimeter=lifelinePerimeter;whiteSpace=wrap;html=1;container=1;dropTarget=0;collapsible=0;recursiveResize=0;outlineConnect=0;portConstraint=eastwest;newEdgeStyle={&quot;edgeStyle&quot;:&quot;elbowEdgeStyle&quot;,&quot;elbow&quot;:&quot;vertical&quot;,&quot;curved&quot;:0,&quot;rounded&quot;:0};fillColor=#9FD8E4;" vertex="1" parent="1">
          <mxGeometry x="590" y="40" width="100" height="680" as="geometry" />
        </mxCell>
        <mxCell id="uf8Uw_HvhAa3_yYF7C0B-5" value="Administrador" style="text;html=1;align=center;verticalAlign=middle;resizable=0;points=[];autosize=1;strokeColor=none;fillColor=none;" vertex="1" parent="1">
          <mxGeometry x="40" y="10" width="100" height="30" as="geometry" />
        </mxCell>
        <mxCell id="uf8Uw_HvhAa3_yYF7C0B-7" value="" style="shape=umlLifeline;perimeter=lifelinePerimeter;whiteSpace=wrap;html=1;container=1;dropTarget=0;collapsible=0;recursiveResize=0;outlineConnect=0;portConstraint=eastwest;newEdgeStyle={&quot;edgeStyle&quot;:&quot;elbowEdgeStyle&quot;,&quot;elbow&quot;:&quot;vertical&quot;,&quot;curved&quot;:0,&quot;rounded&quot;:0};participant=umlActor;fillColor=#FFDF9C;" vertex="1" parent="1">
          <mxGeometry x="990" y="40" width="20" height="680" as="geometry" />
        </mxCell>
        <mxCell id="uf8Uw_HvhAa3_yYF7C0B-8" value="BBDD" style="text;html=1;align=center;verticalAlign=middle;resizable=0;points=[];autosize=1;strokeColor=none;fillColor=none;" vertex="1" parent="1">
          <mxGeometry x="970" y="10" width="60" height="30" as="geometry" />
        </mxCell>
        <mxCell id="uf8Uw_HvhAa3_yYF7C0B-9" value="Repository" style="shape=umlLifeline;perimeter=lifelinePerimeter;whiteSpace=wrap;html=1;container=1;dropTarget=0;collapsible=0;recursiveResize=0;outlineConnect=0;portConstraint=eastwest;newEdgeStyle={&quot;edgeStyle&quot;:&quot;elbowEdgeStyle&quot;,&quot;elbow&quot;:&quot;vertical&quot;,&quot;curved&quot;:0,&quot;rounded&quot;:0};fillColor=#FFA78E;" vertex="1" parent="1">
          <mxGeometry x="790" y="40" width="100" height="680" as="geometry" />
        </mxCell>
        <mxCell id="uf8Uw_HvhAa3_yYF7C0B-10" value="" style="rounded=0;whiteSpace=wrap;html=1;fillColor=#E6D0DE;" vertex="1" parent="1">
          <mxGeometry x="85" y="90" width="10" height="170" as="geometry" />
        </mxCell>
        <mxCell id="uf8Uw_HvhAa3_yYF7C0B-12" value="Vista del formulario" style="html=1;verticalAlign=bottom;endArrow=open;dashed=1;endSize=8;edgeStyle=elbowEdgeStyle;elbow=vertical;curved=0;rounded=0;" edge="1" parent="1">
          <mxGeometry relative="1" as="geometry">
            <mxPoint x="270" y="139.33" as="sourcePoint" />
            <mxPoint x="100" y="139.33" as="targetPoint" />
          </mxGeometry>
        </mxCell>
        <mxCell id="uf8Uw_HvhAa3_yYF7C0B-13" value="" style="rounded=0;whiteSpace=wrap;html=1;fillColor=#91DEBF;" vertex="1" parent="1">
          <mxGeometry x="265" y="100" width="10" height="40" as="geometry" />
        </mxCell>
        <mxCell id="uf8Uw_HvhAa3_yYF7C0B-16" value="Actualiza el estado" style="html=1;verticalAlign=bottom;endArrow=block;edgeStyle=elbowEdgeStyle;elbow=vertical;curved=0;rounded=0;" edge="1" parent="1">
          <mxGeometry width="80" relative="1" as="geometry">
            <mxPoint x="450" y="200" as="sourcePoint" />
            <mxPoint x="639.5" y="200.33333333333337" as="targetPoint" />
          </mxGeometry>
        </mxCell>
        <mxCell id="uf8Uw_HvhAa3_yYF7C0B-18" value="Interfaz reactiva" style="html=1;verticalAlign=bottom;endArrow=open;dashed=1;endSize=8;edgeStyle=elbowEdgeStyle;elbow=vertical;curved=0;rounded=0;" edge="1" parent="1">
          <mxGeometry relative="1" as="geometry">
            <mxPoint x="637" y="230.78" as="sourcePoint" />
            <mxPoint x="282" y="230" as="targetPoint" />
          </mxGeometry>
        </mxCell>
        <mxCell id="uf8Uw_HvhAa3_yYF7C0B-19" value="" style="rounded=0;whiteSpace=wrap;html=1;fillColor=#91DEBF;" vertex="1" parent="1">
          <mxGeometry x="265" y="180" width="10" height="50" as="geometry" />
        </mxCell>
        <mxCell id="uf8Uw_HvhAa3_yYF7C0B-14" value="Actualiza un campo" style="html=1;verticalAlign=bottom;endArrow=block;edgeStyle=elbowEdgeStyle;elbow=vertical;curved=0;rounded=0;exitX=1.022;exitY=0.274;exitDx=0;exitDy=0;exitPerimeter=0;" edge="1" parent="1">
          <mxGeometry width="80" relative="1" as="geometry">
            <mxPoint x="95.21999999999991" y="180.27999999999997" as="sourcePoint" />
            <mxPoint x="269.5" y="180.33333333333337" as="targetPoint" />
          </mxGeometry>
        </mxCell>
        <mxCell id="uf8Uw_HvhAa3_yYF7C0B-21" value="" style="rounded=0;whiteSpace=wrap;html=1;fillColor=#F7BBBD;" vertex="1" parent="1">
          <mxGeometry x="445" y="190" width="10" height="20" as="geometry" />
        </mxCell>
        <mxCell id="uf8Uw_HvhAa3_yYF7C0B-11" value="Pulsa boton &quot;nueva cita&quot;" style="html=1;verticalAlign=bottom;endArrow=block;edgeStyle=elbowEdgeStyle;elbow=vertical;curved=0;rounded=0;exitX=1.022;exitY=0.042;exitDx=0;exitDy=0;exitPerimeter=0;" edge="1" parent="1" source="uf8Uw_HvhAa3_yYF7C0B-10" target="aM9ryv3xv72pqoxQDRHE-5">
          <mxGeometry width="80" relative="1" as="geometry">
            <mxPoint x="100" y="100" as="sourcePoint" />
            <mxPoint x="180" y="100" as="targetPoint" />
          </mxGeometry>
        </mxCell>
        <mxCell id="uf8Uw_HvhAa3_yYF7C0B-25" value="Muestra los cambios oportunos" style="html=1;verticalAlign=bottom;endArrow=open;dashed=1;endSize=8;edgeStyle=elbowEdgeStyle;elbow=vertical;curved=0;rounded=0;" edge="1" parent="1">
          <mxGeometry relative="1" as="geometry">
            <mxPoint x="265" y="229.67000000000002" as="sourcePoint" />
            <mxPoint x="100" y="229.33" as="targetPoint" />
          </mxGeometry>
        </mxCell>
        <mxCell id="uf8Uw_HvhAa3_yYF7C0B-26" value="Pulsa boton &quot;save&quot;" style="html=1;verticalAlign=bottom;endArrow=block;edgeStyle=elbowEdgeStyle;elbow=vertical;curved=0;rounded=0;exitX=1.022;exitY=0.042;exitDx=0;exitDy=0;exitPerimeter=0;" edge="1" parent="1">
          <mxGeometry width="80" relative="1" as="geometry">
            <mxPoint x="95" y="300" as="sourcePoint" />
            <mxPoint x="270" y="300" as="targetPoint" />
          </mxGeometry>
        </mxCell>
        <mxCell id="uf8Uw_HvhAa3_yYF7C0B-27" value="" style="rounded=0;whiteSpace=wrap;html=1;fillColor=#91DEBF;" vertex="1" parent="1">
          <mxGeometry x="265" y="300" width="10" height="20" as="geometry" />
        </mxCell>
        <mxCell id="uf8Uw_HvhAa3_yYF7C0B-29" value="" style="html=1;verticalAlign=bottom;endArrow=block;edgeStyle=elbowEdgeStyle;elbow=vertical;curved=0;rounded=0;" edge="1" parent="1" target="uf8Uw_HvhAa3_yYF7C0B-1">
          <mxGeometry width="80" relative="1" as="geometry">
            <mxPoint x="275" y="109.67" as="sourcePoint" />
            <mxPoint x="355" y="109.67" as="targetPoint" />
          </mxGeometry>
        </mxCell>
        <mxCell id="uf8Uw_HvhAa3_yYF7C0B-31" value="Abre el modal del formulario" style="html=1;verticalAlign=bottom;endArrow=open;dashed=1;endSize=8;edgeStyle=elbowEdgeStyle;elbow=vertical;curved=0;rounded=0;" edge="1" parent="1" source="uf8Uw_HvhAa3_yYF7C0B-1">
          <mxGeometry relative="1" as="geometry">
            <mxPoint x="445" y="130" as="sourcePoint" />
            <mxPoint x="275" y="130" as="targetPoint" />
          </mxGeometry>
        </mxCell>
        <mxCell id="uf8Uw_HvhAa3_yYF7C0B-32" value="" style="rounded=0;whiteSpace=wrap;html=1;fillColor=#F7BBBD;" vertex="1" parent="1">
          <mxGeometry x="445" y="110" width="10" height="20" as="geometry" />
        </mxCell>
        <mxCell id="uf8Uw_HvhAa3_yYF7C0B-33" value="" style="rounded=0;whiteSpace=wrap;html=1;fillColor=#9FD8E4;" vertex="1" parent="1">
          <mxGeometry x="635" y="200" width="10" height="30" as="geometry" />
        </mxCell>
        <mxCell id="uf8Uw_HvhAa3_yYF7C0B-34" value="" style="rounded=0;whiteSpace=wrap;html=1;fillColor=#9FD8E4;" vertex="1" parent="1">
          <mxGeometry x="635" y="320" width="10" height="310" as="geometry" />
        </mxCell>
        <mxCell id="uf8Uw_HvhAa3_yYF7C0B-40" value="" style="endArrow=none;dashed=1;html=1;rounded=0;entryX=1.001;entryY=0.782;entryDx=0;entryDy=0;entryPerimeter=0;exitX=0;exitY=0.776;exitDx=0;exitDy=0;exitPerimeter=0;" edge="1" parent="1" source="uf8Uw_HvhAa3_yYF7C0B-38" target="uf8Uw_HvhAa3_yYF7C0B-38">
          <mxGeometry width="50" height="50" relative="1" as="geometry">
            <mxPoint x="40" y="720" as="sourcePoint" />
            <mxPoint x="280" y="740" as="targetPoint" />
          </mxGeometry>
        </mxCell>
        <mxCell id="uf8Uw_HvhAa3_yYF7C0B-41" value="&lt;font style=&quot;font-size: 11px;&quot;&gt;[Validación Correcta]&lt;/font&gt;" style="text;html=1;align=center;verticalAlign=middle;resizable=0;points=[];autosize=1;strokeColor=none;fillColor=none;" vertex="1" parent="1">
          <mxGeometry x="1020" y="275" width="120" height="30" as="geometry" />
        </mxCell>
        <mxCell id="uf8Uw_HvhAa3_yYF7C0B-42" value="&lt;font style=&quot;font-size: 11px;&quot;&gt;[Validación Incorrecta]&lt;/font&gt;" style="text;html=1;align=center;verticalAlign=middle;resizable=0;points=[];autosize=1;strokeColor=none;fillColor=none;" vertex="1" parent="1">
          <mxGeometry x="1015" y="600" width="130" height="30" as="geometry" />
        </mxCell>
        <mxCell id="uf8Uw_HvhAa3_yYF7C0B-43" value="" style="edgeStyle=elbowEdgeStyle;elbow=horizontal;endArrow=classic;html=1;curved=0;rounded=0;endSize=8;startSize=8;" edge="1" parent="1">
          <mxGeometry width="50" height="50" relative="1" as="geometry">
            <mxPoint x="645" y="327" as="sourcePoint" />
            <mxPoint x="646" y="359" as="targetPoint" />
            <Array as="points">
              <mxPoint x="695" y="350" />
            </Array>
          </mxGeometry>
        </mxCell>
        <mxCell id="uf8Uw_HvhAa3_yYF7C0B-44" value="&lt;font style=&quot;font-size: 11px;&quot;&gt;Validar estado&lt;/font&gt;" style="text;html=1;align=center;verticalAlign=middle;resizable=0;points=[];autosize=1;strokeColor=none;fillColor=none;" vertex="1" parent="1">
          <mxGeometry x="690" y="330" width="90" height="30" as="geometry" />
        </mxCell>
        <mxCell id="uf8Uw_HvhAa3_yYF7C0B-45" value="Le evia la clase" style="html=1;verticalAlign=bottom;endArrow=block;edgeStyle=elbowEdgeStyle;elbow=vertical;curved=0;rounded=0;" edge="1" parent="1" target="uf8Uw_HvhAa3_yYF7C0B-9">
          <mxGeometry width="80" relative="1" as="geometry">
            <mxPoint x="645" y="390" as="sourcePoint" />
            <mxPoint x="829.5" y="390.33333333333337" as="targetPoint" />
          </mxGeometry>
        </mxCell>
        <mxCell id="uf8Uw_HvhAa3_yYF7C0B-46" value="" style="rounded=0;whiteSpace=wrap;html=1;fillColor=#F7BBBD;" vertex="1" parent="1">
          <mxGeometry x="445" y="310" width="10" height="20" as="geometry" />
        </mxCell>
        <mxCell id="uf8Uw_HvhAa3_yYF7C0B-47" value="viewModel.Save()" style="html=1;verticalAlign=bottom;endArrow=block;edgeStyle=elbowEdgeStyle;elbow=vertical;curved=0;rounded=0;" edge="1" parent="1">
          <mxGeometry width="80" relative="1" as="geometry">
            <mxPoint x="455" y="329.33" as="sourcePoint" />
            <mxPoint x="633" y="328" as="targetPoint" />
          </mxGeometry>
        </mxCell>
        <mxCell id="uf8Uw_HvhAa3_yYF7C0B-49" value="" style="rounded=0;whiteSpace=wrap;html=1;fillColor=#FFA78E;" vertex="1" parent="1">
          <mxGeometry x="835" y="390" width="10" height="70" as="geometry" />
        </mxCell>
        <mxCell id="uf8Uw_HvhAa3_yYF7C0B-50" value="Hace el insert" style="html=1;verticalAlign=bottom;endArrow=block;edgeStyle=elbowEdgeStyle;elbow=vertical;curved=0;rounded=0;" edge="1" parent="1">
          <mxGeometry width="80" relative="1" as="geometry">
            <mxPoint x="845" y="410" as="sourcePoint" />
            <mxPoint x="1000" y="409" as="targetPoint" />
          </mxGeometry>
        </mxCell>
        <mxCell id="uf8Uw_HvhAa3_yYF7C0B-51" value="" style="rounded=0;whiteSpace=wrap;html=1;fillColor=#FFDF9C;" vertex="1" parent="1">
          <mxGeometry x="995" y="410" width="10" height="30" as="geometry" />
        </mxCell>
        <mxCell id="uf8Uw_HvhAa3_yYF7C0B-52" value="ResultSet" style="html=1;verticalAlign=bottom;endArrow=open;dashed=1;endSize=8;edgeStyle=elbowEdgeStyle;elbow=vertical;curved=0;rounded=0;" edge="1" parent="1">
          <mxGeometry relative="1" as="geometry">
            <mxPoint x="995" y="440" as="sourcePoint" />
            <mxPoint x="847" y="440" as="targetPoint" />
          </mxGeometry>
        </mxCell>
        <mxCell id="uf8Uw_HvhAa3_yYF7C0B-54" value="Result" style="html=1;verticalAlign=bottom;endArrow=open;dashed=1;endSize=8;edgeStyle=elbowEdgeStyle;elbow=vertical;curved=0;rounded=0;" edge="1" parent="1">
          <mxGeometry relative="1" as="geometry">
            <mxPoint x="835" y="450.09" as="sourcePoint" />
            <mxPoint x="647" y="450" as="targetPoint" />
          </mxGeometry>
        </mxCell>
        <mxCell id="uf8Uw_HvhAa3_yYF7C0B-55" value="Muestra un Alert de Información" style="html=1;verticalAlign=bottom;endArrow=open;dashed=1;endSize=8;edgeStyle=elbowEdgeStyle;elbow=vertical;curved=0;rounded=0;" edge="1" parent="1" target="aM9ryv3xv72pqoxQDRHE-5">
          <mxGeometry relative="1" as="geometry">
            <mxPoint x="635" y="470.21" as="sourcePoint" />
            <mxPoint x="555" y="470.21" as="targetPoint" />
          </mxGeometry>
        </mxCell>
        <mxCell id="uf8Uw_HvhAa3_yYF7C0B-56" value="" style="rounded=0;whiteSpace=wrap;html=1;fillColor=#91DEBF;" vertex="1" parent="1">
          <mxGeometry x="265" y="470" width="10" height="20" as="geometry" />
        </mxCell>
        <mxCell id="uf8Uw_HvhAa3_yYF7C0B-57" value="Muestra el Alert" style="html=1;verticalAlign=bottom;endArrow=open;dashed=1;endSize=8;edgeStyle=elbowEdgeStyle;elbow=vertical;curved=0;rounded=0;" edge="1" parent="1">
          <mxGeometry relative="1" as="geometry">
            <mxPoint x="265" y="490.43" as="sourcePoint" />
            <mxPoint x="98" y="491" as="targetPoint" />
          </mxGeometry>
        </mxCell>
        <mxCell id="uf8Uw_HvhAa3_yYF7C0B-62" value="" style="endArrow=none;dashed=1;html=1;rounded=0;entryX=1.002;entryY=0.624;entryDx=0;entryDy=0;entryPerimeter=0;exitX=0.002;exitY=0.624;exitDx=0;exitDy=0;exitPerimeter=0;" edge="1" parent="1" source="uf8Uw_HvhAa3_yYF7C0B-61" target="uf8Uw_HvhAa3_yYF7C0B-61">
          <mxGeometry width="50" height="50" relative="1" as="geometry">
            <mxPoint x="115" y="1205" as="sourcePoint" />
            <mxPoint x="355" y="1225" as="targetPoint" />
          </mxGeometry>
        </mxCell>
        <mxCell id="uf8Uw_HvhAa3_yYF7C0B-63" value="&lt;font style=&quot;font-size: 11px;&quot;&gt;[Result OK]&lt;/font&gt;" style="text;html=1;align=center;verticalAlign=middle;resizable=0;points=[];autosize=1;strokeColor=none;fillColor=none;" vertex="1" parent="1">
          <mxGeometry x="1040" y="420" width="80" height="30" as="geometry" />
        </mxCell>
        <mxCell id="uf8Uw_HvhAa3_yYF7C0B-64" value="&lt;font style=&quot;font-size: 11px;&quot;&gt;[Result ERR]&lt;/font&gt;" style="text;html=1;align=center;verticalAlign=middle;resizable=0;points=[];autosize=1;strokeColor=none;fillColor=none;" vertex="1" parent="1">
          <mxGeometry x="1030" y="510" width="90" height="30" as="geometry" />
        </mxCell>
        <mxCell id="uf8Uw_HvhAa3_yYF7C0B-65" value="Muestra un Alert de Error" style="html=1;verticalAlign=bottom;endArrow=open;dashed=1;endSize=8;edgeStyle=elbowEdgeStyle;elbow=vertical;curved=0;rounded=0;" edge="1" parent="1">
          <mxGeometry relative="1" as="geometry">
            <mxPoint x="635" y="539.21" as="sourcePoint" />
            <mxPoint x="270" y="539" as="targetPoint" />
          </mxGeometry>
        </mxCell>
        <mxCell id="uf8Uw_HvhAa3_yYF7C0B-66" value="" style="rounded=0;whiteSpace=wrap;html=1;fillColor=#91DEBF;" vertex="1" parent="1">
          <mxGeometry x="265" y="539" width="10" height="20" as="geometry" />
        </mxCell>
        <mxCell id="uf8Uw_HvhAa3_yYF7C0B-67" value="Muestra el Alert" style="html=1;verticalAlign=bottom;endArrow=open;dashed=1;endSize=8;edgeStyle=elbowEdgeStyle;elbow=vertical;curved=0;rounded=0;" edge="1" parent="1">
          <mxGeometry relative="1" as="geometry">
            <mxPoint x="265" y="559.4300000000001" as="sourcePoint" />
            <mxPoint x="98" y="560" as="targetPoint" />
          </mxGeometry>
        </mxCell>
        <mxCell id="uf8Uw_HvhAa3_yYF7C0B-68" value="Muestra un Alert de Error" style="html=1;verticalAlign=bottom;endArrow=open;dashed=1;endSize=8;edgeStyle=elbowEdgeStyle;elbow=vertical;curved=0;rounded=0;" edge="1" parent="1">
          <mxGeometry relative="1" as="geometry">
            <mxPoint x="632" y="618.83" as="sourcePoint" />
            <mxPoint x="267" y="618.62" as="targetPoint" />
          </mxGeometry>
        </mxCell>
        <mxCell id="uf8Uw_HvhAa3_yYF7C0B-69" value="" style="rounded=0;whiteSpace=wrap;html=1;fillColor=#91DEBF;" vertex="1" parent="1">
          <mxGeometry x="262" y="618.62" width="10" height="20" as="geometry" />
        </mxCell>
        <mxCell id="uf8Uw_HvhAa3_yYF7C0B-70" value="Muestra el Alert" style="html=1;verticalAlign=bottom;endArrow=open;dashed=1;endSize=8;edgeStyle=elbowEdgeStyle;elbow=vertical;curved=0;rounded=0;" edge="1" parent="1">
          <mxGeometry relative="1" as="geometry">
            <mxPoint x="262" y="639.0500000000001" as="sourcePoint" />
            <mxPoint x="95" y="639.62" as="targetPoint" />
          </mxGeometry>
        </mxCell>
        <mxCell id="uf8Uw_HvhAa3_yYF7C0B-72" value="Enviar evento" style="html=1;verticalAlign=bottom;endArrow=block;edgeStyle=elbowEdgeStyle;elbow=vertical;curved=0;rounded=0;" edge="1" parent="1">
          <mxGeometry width="80" relative="1" as="geometry">
            <mxPoint x="275" y="311.33" as="sourcePoint" />
            <mxPoint x="444" y="311" as="targetPoint" />
          </mxGeometry>
        </mxCell>
      </root>
    </mxGraphModel>
  </diagram>
</mxfile>
